<?xml version="1.0" encoding="UTF-8"?>
<svg id="Layer_2" data-name="Layer 2" xmlns="http://www.w3.org/2000/svg" xmlns:xlink="http://www.w3.org/1999/xlink" viewBox="0 0 1030.94 307.49">
  <defs>
    <style>
      .cls-1 {
        filter: url(#drop-shadow-1);
      }

      .cls-2 {
        fill: #fff;
      }
    </style>
    <filter id="drop-shadow-1" x="-8.53" y="-8.26" width="1062" height="338" filterUnits="userSpaceOnUse">
      <feOffset dx="7" dy="7"/>
      <feGaussianBlur result="blur" stdDeviation="5"/>
      <feFlood flood-color="#7f7f7f" flood-opacity=".75"/>
      <feComposite in2="blur" operator="in"/>
      <feComposite in="SourceGraphic"/>
    </filter>
  </defs>
  <g id="Layer_1-2" data-name="Layer 1">
    <g class="cls-1">
      <path class="cls-2" d="M0,151.12v-10.76h11.06v10.76H0ZM0,151.12v-10.76h11.06v10.76H0ZM0,151.12v-10.76h11.06v10.76H0ZM0,151.12v-10.76h11.06v10.76H0ZM7.9,151.12v-10.76h11.06v10.76H7.9ZM7.9,151.12v-10.76h11.06v10.76H7.9ZM7.9,151.12v-10.76h11.06v10.76H7.9ZM7.9,151.12v-10.76h11.06v10.76H7.9ZM15.8,151.12v-10.76h11.06v10.76h-11.06ZM15.8,151.12v-10.76h11.06v10.76h-11.06ZM15.8,151.12v-10.76h11.06v10.76h-11.06ZM15.8,151.12v-10.76h11.06v10.76h-11.06ZM15.8,158.8v-10.76h11.06v10.76h-11.06ZM15.8,158.8v-10.76h11.06v10.76h-11.06ZM15.8,158.8v-10.76h11.06v10.76h-11.06ZM15.8,158.8v-10.76h11.06v10.76h-11.06ZM15.8,166.49v-10.76h11.06v10.76h-11.06ZM15.8,166.49v-10.76h11.06v10.76h-11.06ZM15.8,166.49v-10.76h11.06v10.76h-11.06ZM15.8,166.49v-10.76h11.06v10.76h-11.06ZM15.8,174.17v-10.76h11.06v10.76h-11.06ZM15.8,174.17v-10.76h11.06v10.76h-11.06ZM15.8,174.17v-10.76h11.06v10.76h-11.06ZM15.8,174.17v-10.76h11.06v10.76h-11.06ZM15.8,181.86v-10.76h11.06v10.76h-11.06ZM15.8,181.86v-10.76h11.06v10.76h-11.06ZM15.8,181.86v-10.76h11.06v10.76h-11.06ZM15.8,181.86v-10.76h11.06v10.76h-11.06ZM15.8,189.54v-10.76h11.06v10.76h-11.06ZM15.8,189.54v-10.76h11.06v10.76h-11.06ZM15.8,189.54v-10.76h11.06v10.76h-11.06ZM15.8,189.54v-10.76h11.06v10.76h-11.06ZM15.8,197.22v-10.76h11.06v10.76h-11.06ZM15.8,197.22v-10.76h11.06v10.76h-11.06ZM15.8,197.22v-10.76h11.06v10.76h-11.06ZM15.8,197.22v-10.76h11.06v10.76h-11.06ZM15.8,204.91v-10.76h11.06v10.76h-11.06ZM15.8,204.91v-10.76h11.06v10.76h-11.06ZM15.8,204.91v-10.76h11.06v10.76h-11.06ZM15.8,204.91v-10.76h11.06v10.76h-11.06ZM15.8,212.59v-10.76h11.06v10.76h-11.06ZM15.8,212.59v-10.76h11.06v10.76h-11.06ZM15.8,212.59v-10.76h11.06v10.76h-11.06ZM15.8,212.59v-10.76h11.06v10.76h-11.06ZM15.8,220.27v-10.76h11.06v10.76h-11.06ZM15.8,220.27v-10.76h11.06v10.76h-11.06ZM15.8,220.27v-10.76h11.06v10.76h-11.06ZM15.8,220.27v-10.76h11.06v10.76h-11.06ZM15.8,227.96v-10.76h11.06v10.76h-11.06ZM15.8,227.96v-10.76h11.06v10.76h-11.06ZM15.8,227.96v-10.76h11.06v10.76h-11.06ZM15.8,227.96v-10.76h11.06v10.76h-11.06ZM23.7,151.12v-10.76h11.06v10.76h-11.06ZM23.7,151.12v-10.76h11.06v10.76h-11.06ZM23.7,151.12v-10.76h11.06v10.76h-11.06ZM23.7,151.12v-10.76h11.06v10.76h-11.06ZM31.6,151.12v-10.76h11.06v10.76h-11.06ZM31.6,151.12v-10.76h11.06v10.76h-11.06ZM31.6,151.12v-10.76h11.06v10.76h-11.06ZM31.6,151.12v-10.76h11.06v10.76h-11.06Z"/>
      <path class="cls-2" d="M47.39,143.44v-10.76h11.06v10.76h-11.06ZM47.39,143.44v-10.76h11.06v10.76h-11.06ZM47.39,143.44v-10.76h11.06v10.76h-11.06ZM47.39,143.44v-10.76h11.06v10.76h-11.06ZM47.39,151.12v-10.76h11.06v10.76h-11.06ZM47.39,151.12v-10.76h11.06v10.76h-11.06ZM47.39,151.12v-10.76h11.06v10.76h-11.06ZM47.39,151.12v-10.76h11.06v10.76h-11.06ZM47.39,158.8v-10.76h11.06v10.76h-11.06ZM47.39,158.8v-10.76h11.06v10.76h-11.06ZM47.39,158.8v-10.76h11.06v10.76h-11.06ZM47.39,158.8v-10.76h11.06v10.76h-11.06ZM47.39,166.49v-10.76h11.06v10.76h-11.06ZM47.39,166.49v-10.76h11.06v10.76h-11.06ZM47.39,166.49v-10.76h11.06v10.76h-11.06ZM47.39,166.49v-10.76h11.06v10.76h-11.06ZM47.39,174.17v-10.76h11.06v10.76h-11.06ZM47.39,174.17v-10.76h11.06v10.76h-11.06ZM47.39,174.17v-10.76h11.06v10.76h-11.06ZM47.39,174.17v-10.76h11.06v10.76h-11.06ZM47.39,181.86v-10.76h11.06v10.76h-11.06ZM47.39,181.86v-10.76h11.06v10.76h-11.06ZM47.39,181.86v-10.76h11.06v10.76h-11.06ZM47.39,181.86v-10.76h11.06v10.76h-11.06ZM47.39,189.54v-10.76h11.06v10.76h-11.06ZM47.39,189.54v-10.76h11.06v10.76h-11.06ZM47.39,189.54v-10.76h11.06v10.76h-11.06ZM47.39,189.54v-10.76h11.06v10.76h-11.06ZM47.39,197.22v-10.76h11.06v10.76h-11.06ZM47.39,197.22v-10.76h11.06v10.76h-11.06ZM47.39,197.22v-10.76h11.06v10.76h-11.06ZM47.39,197.22v-10.76h11.06v10.76h-11.06ZM47.39,204.91v-10.76h11.06v10.76h-11.06ZM47.39,204.91v-10.76h11.06v10.76h-11.06ZM47.39,204.91v-10.76h11.06v10.76h-11.06ZM47.39,204.91v-10.76h11.06v10.76h-11.06ZM47.39,212.59v-10.76h11.06v10.76h-11.06ZM47.39,212.59v-10.76h11.06v10.76h-11.06ZM47.39,212.59v-10.76h11.06v10.76h-11.06ZM47.39,212.59v-10.76h11.06v10.76h-11.06ZM47.39,220.27v-10.76h11.06v10.76h-11.06ZM47.39,220.27v-10.76h11.06v10.76h-11.06ZM47.39,220.27v-10.76h11.06v10.76h-11.06ZM47.39,220.27v-10.76h11.06v10.76h-11.06ZM47.39,227.96v-10.76h11.06v10.76h-11.06ZM47.39,227.96v-10.76h11.06v10.76h-11.06ZM47.39,227.96v-10.76h11.06v10.76h-11.06ZM47.39,227.96v-10.76h11.06v10.76h-11.06ZM55.29,181.86v-10.76h11.06v10.76h-11.06ZM55.29,181.86v-10.76h11.06v10.76h-11.06ZM55.29,181.86v-10.76h11.06v10.76h-11.06ZM55.29,181.86v-10.76h11.06v10.76h-11.06ZM63.19,174.17v-10.76h11.06v10.76h-11.06ZM63.19,174.17v-10.76h11.06v10.76h-11.06ZM63.19,174.17v-10.76h11.06v10.76h-11.06ZM63.19,174.17v-10.76h11.06v10.76h-11.06ZM71.09,174.17v-10.76h11.06v10.76h-11.06ZM71.09,174.17v-10.76h11.06v10.76h-11.06ZM71.09,174.17v-10.76h11.06v10.76h-11.06ZM71.09,174.17v-10.76h11.06v10.76h-11.06ZM78.99,181.86v-10.76h11.06v10.76h-11.06ZM78.99,181.86v-10.76h11.06v10.76h-11.06ZM78.99,181.86v-10.76h11.06v10.76h-11.06ZM78.99,181.86v-10.76h11.06v10.76h-11.06ZM78.99,189.54v-10.76h11.06v10.76h-11.06ZM78.99,189.54v-10.76h11.06v10.76h-11.06ZM78.99,189.54v-10.76h11.06v10.76h-11.06ZM78.99,189.54v-10.76h11.06v10.76h-11.06ZM78.99,197.22v-10.76h11.06v10.76h-11.06ZM78.99,197.22v-10.76h11.06v10.76h-11.06ZM78.99,197.22v-10.76h11.06v10.76h-11.06ZM78.99,197.22v-10.76h11.06v10.76h-11.06ZM78.99,204.91v-10.76h11.06v10.76h-11.06ZM78.99,204.91v-10.76h11.06v10.76h-11.06ZM78.99,204.91v-10.76h11.06v10.76h-11.06ZM78.99,204.91v-10.76h11.06v10.76h-11.06ZM78.99,212.59v-10.76h11.06v10.76h-11.06ZM78.99,212.59v-10.76h11.06v10.76h-11.06ZM78.99,212.59v-10.76h11.06v10.76h-11.06ZM78.99,212.59v-10.76h11.06v10.76h-11.06ZM78.99,220.27v-10.76h11.06v10.76h-11.06ZM78.99,220.27v-10.76h11.06v10.76h-11.06ZM78.99,220.27v-10.76h11.06v10.76h-11.06ZM78.99,220.27v-10.76h11.06v10.76h-11.06ZM78.99,227.96v-10.76h11.06v10.76h-11.06ZM78.99,227.96v-10.76h11.06v10.76h-11.06ZM78.99,227.96v-10.76h11.06v10.76h-11.06ZM78.99,227.96v-10.76h11.06v10.76h-11.06Z"/>
      <path class="cls-2" d="M102.68,181.86v-10.76h11.06v10.76h-11.06ZM102.68,181.86v-10.76h11.06v10.76h-11.06ZM102.68,181.86v-10.76h11.06v10.76h-11.06ZM102.68,181.86v-10.76h11.06v10.76h-11.06ZM102.68,189.54v-10.76h11.06v10.76h-11.06ZM102.68,189.54v-10.76h11.06v10.76h-11.06ZM102.68,189.54v-10.76h11.06v10.76h-11.06ZM102.68,189.54v-10.76h11.06v10.76h-11.06ZM102.68,197.22v-10.76h11.06v10.76h-11.06ZM102.68,197.22v-10.76h11.06v10.76h-11.06ZM102.68,197.22v-10.76h11.06v10.76h-11.06ZM102.68,197.22v-10.76h11.06v10.76h-11.06ZM102.68,204.91v-10.76h11.06v10.76h-11.06ZM102.68,204.91v-10.76h11.06v10.76h-11.06ZM102.68,204.91v-10.76h11.06v10.76h-11.06ZM102.68,204.91v-10.76h11.06v10.76h-11.06ZM102.68,212.59v-10.76h11.06v10.76h-11.06ZM102.68,212.59v-10.76h11.06v10.76h-11.06ZM102.68,212.59v-10.76h11.06v10.76h-11.06ZM102.68,212.59v-10.76h11.06v10.76h-11.06ZM102.68,220.27v-10.76h11.06v10.76h-11.06ZM102.68,220.27v-10.76h11.06v10.76h-11.06ZM102.68,220.27v-10.76h11.06v10.76h-11.06ZM102.68,220.27v-10.76h11.06v10.76h-11.06ZM110.58,174.17v-10.76h11.06v10.76h-11.06ZM110.58,174.17v-10.76h11.06v10.76h-11.06ZM110.58,174.17v-10.76h11.06v10.76h-11.06ZM110.58,174.17v-10.76h11.06v10.76h-11.06ZM110.58,197.22v-10.76h11.06v10.76h-11.06ZM110.58,197.22v-10.76h11.06v10.76h-11.06ZM110.58,197.22v-10.76h11.06v10.76h-11.06ZM110.58,197.22v-10.76h11.06v10.76h-11.06ZM110.58,227.96v-10.76h11.06v10.76h-11.06ZM110.58,227.96v-10.76h11.06v10.76h-11.06ZM110.58,227.96v-10.76h11.06v10.76h-11.06ZM110.58,227.96v-10.76h11.06v10.76h-11.06ZM118.48,174.17v-10.76h11.06v10.76h-11.06ZM118.48,174.17v-10.76h11.06v10.76h-11.06ZM118.48,174.17v-10.76h11.06v10.76h-11.06ZM118.48,174.17v-10.76h11.06v10.76h-11.06ZM118.48,197.22v-10.76h11.06v10.76h-11.06ZM118.48,197.22v-10.76h11.06v10.76h-11.06ZM118.48,197.22v-10.76h11.06v10.76h-11.06ZM118.48,197.22v-10.76h11.06v10.76h-11.06ZM118.48,227.96v-10.76h11.06v10.76h-11.06ZM118.48,227.96v-10.76h11.06v10.76h-11.06ZM118.48,227.96v-10.76h11.06v10.76h-11.06ZM118.48,227.96v-10.76h11.06v10.76h-11.06ZM126.38,174.17v-10.76h11.06v10.76h-11.06ZM126.38,174.17v-10.76h11.06v10.76h-11.06ZM126.38,174.17v-10.76h11.06v10.76h-11.06ZM126.38,174.17v-10.76h11.06v10.76h-11.06ZM126.38,197.22v-10.76h11.06v10.76h-11.06ZM126.38,197.22v-10.76h11.06v10.76h-11.06ZM126.38,197.22v-10.76h11.06v10.76h-11.06ZM126.38,197.22v-10.76h11.06v10.76h-11.06ZM126.38,227.96v-10.76h11.06v10.76h-11.06ZM126.38,227.96v-10.76h11.06v10.76h-11.06ZM126.38,227.96v-10.76h11.06v10.76h-11.06ZM126.38,227.96v-10.76h11.06v10.76h-11.06ZM134.28,181.86v-10.76h11.06v10.76h-11.06ZM134.28,181.86v-10.76h11.06v10.76h-11.06ZM134.28,181.86v-10.76h11.06v10.76h-11.06ZM134.28,181.86v-10.76h11.06v10.76h-11.06ZM134.28,189.54v-10.76h11.06v10.76h-11.06ZM134.28,189.54v-10.76h11.06v10.76h-11.06ZM134.28,189.54v-10.76h11.06v10.76h-11.06ZM134.28,189.54v-10.76h11.06v10.76h-11.06ZM134.28,197.22v-10.76h11.06v10.76h-11.06ZM134.28,197.22v-10.76h11.06v10.76h-11.06ZM134.28,197.22v-10.76h11.06v10.76h-11.06ZM134.28,197.22v-10.76h11.06v10.76h-11.06ZM134.28,220.27v-10.76h11.06v10.76h-11.06ZM134.28,220.27v-10.76h11.06v10.76h-11.06ZM134.28,220.27v-10.76h11.06v10.76h-11.06ZM134.28,220.27v-10.76h11.06v10.76h-11.06Z"/>
      <path class="cls-2" d="M171.97,221.78c-2.98-6.1,3.28-9.43,1.49-16.11-2.69-8.71,6.42-15.96,12.53-22.06,3.43-3.63-1.34-10.45,2.39-14.08,1.49-1.6,1.94-4.64,4.92-4.64,7.91,0,4.77,3.77,11.94,3.77,5.67,0,17.31-4.93,18.8.58,5.22,22.06,11.49,18.87-18.5,28.59-20.89,6.68-8.8-3.92,1.34-8.27,8.5-3.92,4.18-7.98,4.33-16.83-.15-1.16-2.98,0-4.03.14-5.37.73-7.61,4.21-10,8.42-1.94,3.05-7.01,3.77-9.1,6.39-5.37,6.24-8.36,13.79-8.21,21.33-.15,4.64,2.69,8.56,2.69,13.06-.15,19.45,5.82,11.61,12.08,18.87,4.18,4.79,12.23,0,11.34,5.66-.45,2.47,6.12.15,9.4,1.16,4.48,1.45,4.77,6.82,8.65.43,7.31-11.9,15.22,1.31,25.81-8.85,2.09-2.03-9.25,1.89-2.83-3.92,1.79-1.74-1.64-6.53.75-7.84,14.77-9.29,14.77-37.44,17.16-42.09,2.39-5.22,9.85-4.5,11.19-10.16.45-2.32.3-7.4-3.58-9-4.62-1.89-14.77,8.85-11.04-2.47,2.09-6.82-14.47-1.45-16.41-12.63-3.28-17.71,14.47-25.54,10.89-11.18-.89,2.76,8.36,3.05,11.19,12.77,2.83,10.59,15.96.73,13.58-7.4-.75-1.6-2.69,1.02-4.18,5.22-.89,2.76-4.92,4.93-6.56,2.18-4.33-7.11,14.02-13.06,14.17-21.19-.15-5.52,9.1-3.92,10.89-9.58,5.07-18.72,2.09-23.66,15.22-39.77,3.58-4.64,0-9.14,3.13-14.8,1.64-3.19,10.59-19.59,7.16-17.41-29.69,17.71-16.26-3.92-56.69,11.17-5.82,2.18-9.55,6.97-15.07,9.29-3.58,1.45,5.22,12.05,1.94,14.22-7.31,4.5-16.11,8.13-10.44,17.27,1.49,2.61-2.39,7.26-1.64,10.16.3,1.45,4.18,3.34,4.33,5.66-.15,6.24-11.64,12.34-11.49,4.35-.15-6.39-.6-3.92-4.48-10.59-9.55-16.11,10.44-42.96,27.6-51.52,9.7-5.08,9.55-11.03,18.5-15.38,35.51-18,46.85,13.35,55.65-13.35,8.35-26.12,18.35-1.02,23.87-12.19,5.37-11.47,13.13-17.42,19.1-19.01,5.82-1.6,14.62,8.71,5.37,9-13.13.29-34.31,19.01-41.77,26.41-10.59,10.01,3.58,3.92,10.15,6.1,14.32,4.93,31.33,6.24,37.6,23.22.9,2.76,1.04-5.66,2.98-1.6,1.79,4.06,1.19,11.03,1.34,16.25-.15,5.37-1.04,5.8,2.24,10.3,1.34,2.03.9,4.93,1.79,5.8,1.19,1.45-.45,9.58-.3,12.77.15,10.3-10,18.29-9.85,28.44-.15,3.63-2.09,8.56-3.13,10.88-1.64,2.76-8.36,4.79-7.31,8.27.3,2.03-4.03,8.27-6.42,9.14-6.56,1.89-6.56,6.24-11.79,9.43-3.43,1.89-6.71,4.35-5.07,5.52.45.43-4.48.58-4.92,1.16-2.54,2.47-2.98,2.18-6.42,2.18-10.44,0-22.23,13.93-31.18,4.06-2.39-2.47-8.8-2.03-11.49-4.64-1.04-.87-6.56-5.66-8.21-5.66-7.01-.29.6,8.42-1.64,12.19-1.64,2.47-8.8,5.95-8.8,8.85-.75,8.13-15.07,23.8-16.26,27.14-2.39,5.37,5.22,3.48,2.24,8.56-1.79,3.05-8.8,6.97-10.74,10.01-16.86,27.43-34.17,29.17-58.34,17.42-18.35-8.85-14.17-26.99-19.84-39.62ZM184.95,251.38c-1.64-1.45-1.04,2.18.75,4.21,1.34,1.45,6.27,3.77,7.91,2.47,2.54-2.32-6.56-4.64-8.65-6.68ZM197.49,167.64c1.49.29-3.73-2.32-4.92-1.31-3.43,2.47-3.58,6.97,1.04,2.61,1.04-1.02,1.19-1.74,3.88-1.31ZM223.45,178.96c-1.04-2.76-1.04,2.9-2.54,5.95-1.49,3.05-6.56,4.21-3.73,4.21,9.25,0,8.95-2.32,6.27-10.16ZM237.47,101.47c-.75.29-2.09,7.69.6,6.39,1.04-.73,1.19-7.26-.6-6.39ZM244.48,123.67c6.12-.15,4.48,4.93-.75,7.26-7.31,3.05-5.37-7.11.75-7.26ZM250.9,143.99c.45-1.31,3.43-4.06,3.43-5.95-.15-6.68-9.55,5.08-7.61,8.71,1.34,3.05,2.83-.44,4.18-2.76ZM251.05,233.24c-1.34,0-5.97,4.79-3.58,4.79,2.54,0,5.07-4.79,3.58-4.79ZM271.34,186.51c0-1.02-.6-3.19-1.34-2.18-2.09,2.32-4.33,6.68-3.43,9.87.15.87,3.73-.14,4.77-7.69ZM293.72,128.17c.75,0,1.34-1.6,1.04-1.6-4.92,0-9.4,3.63-9.25,8.42-.15,2.61-1.49,4.93-.45,4.35,3.73-2.47,2.83-11.18,8.65-11.18ZM348.32,165.61c14.62-5.08,6.27-34.68,24.17-35.12,2.69-.14-7.46,3.48-7.91,6.68-.75,3.63-2.69,5.51-2.54,8.85-.15,1.6,2.39.58,2.54-.87-.15-2.47-1.34-3.05,2.69-7.11,1.94-2.18,5.07-5.08,4.62-3.77-3.13,6.68,4.33,9.72,6.42,3.34.45-2.03.6-7.4,0-11.18-.6-3.77-6.86-5.08-2.24-13.21,4.03-7.55-1.94-11.32-1.79-18.29-.15-4.93-.75-12.48.3-17.12.75-4.35,2.24-10.3-3.13-12.92-1.79-.87-2.68-5.22-3.88-6.53-4.48-4.06-25.96-14.08-32.38-12.48-16.26,3.92-.15,28.74-27.9,55.44-5.97,5.52-6.42,16.54-6.27,24.09-.15,5.22.15,10.88-4.77,15.24-4.77,3.92-15.22,34.98-7.91,27.57,3.88-4.21,8.5,1.02,14.32,6.68,6.71,6.82,19.54-3.48,27.75,1.31,6.71,3.92,11.64-8.56,17.9-10.59ZM294.91,178.09c-1.19,1.16,7.76,4.64,9.25,4.06,2.39-1.31-5.97-7.4-9.25-4.06ZM309.38,48.78c-1.79,0-2.98,2.32-4.48,2.47-2.54.15-10-1.45-2.83,2.47,3.58,2.03,15.07-4.93,7.31-4.93ZM318.04,67.22c.3-.73.45-1.45.6-2.03-.15-4.79-6.56,11.76-4.48,10.88,1.19-.73-1.49-.14,3.88-8.85ZM365.78,160.82c-.45-.58-5.97,4.21-4.18,3.48,1.49-.73,5.22-.73,4.18-3.48ZM375.92,2.49c.52-4.26-8.15,2.05-11.99,4.99,3.84-2.17,11.59-2.65,11.99-4.99ZM363.99,27.16c-.15-7.55,7.31-5.81,7.46.58-.15,6.39-7.61,7.4-7.46-.58ZM380.55,114.38c.89-8.85-7.01,5.8-2.24,7.11,1.94.58,1.79-4.64,2.24-7.11ZM385.02,86.95c-4.18-7.98-2.09,2.18-.75,4.93,3.28,7.55,3.13.14.75-4.93Z"/>
      <path class="cls-2" d="M388.95,243.46c-1.68,0-2.49-.86-4.06-.93-6.12-.29-8.65-1.45-11.64-3.48-3.14-2.14-4.11-4.95-4.11-7.96,0-2.05.45-4.19.98-6.27,1.79-7.06.52-10.84,3.13-17.27,3.73-9.18.86-7.02,5.52-10.59.5-.38.76-.87.76-1.51s-.25-1.41-.76-2.41c-1.19-2.03,2.46-4.55,4.03-6.68,1.33-1.79,1.66-2.82,1.66-3.67s-.34-1.55-.34-2.68c0-1.66-1.59-5.82,2.55-10.94,3.5-4.33,8.79-5.08,11.19-8.1,17.65-22.26,15.44-29.6,24.05-29.79,4.21-.09,2.56,2.99,3.47,2.99,2.15,0,3.45-3.1,5.01-3.1,2.61,0,4.75.84,6.71,1.27,1,.22,1.93.27,2.76.27.95,0,1.78-.07,2.48-.07,1.72,0,2.69.44,2.69,3.48,0,6.04,5.69,1.21,5.69,9.96,0,6.68-4.38,9.48-5.42,11.22-2.69,4.21-7.46,10.45-8.8,12.34-3.73,5.51-.45,9.58-4.18,13.06-2.39,2.18-3.13.15-10.15,4.21-1.49.87-3.26.72-6.41,3.92-4.55,4.61-8.36,5.22-13.43,6.53-2.54.37-5.72-.59-8.59-.59-1.69,0-3.27.33-4.54,1.46-1.64,1.89-2.69,5.22-3.58,7.69-1.94,5.52-2.19,8.09-2.69,9.14-1.03,2.18-1.38,3.89-1.38,5.37,0,3.04,1.48,5.05,1.48,7.95,0,1.03-.19,2.18-.7,3.52-.58,1.54,3.39,2.68,8.19,2.68,3.71,0,7.92-.68,10.91-2.39.95-.52,3.31-4.39,6.95-6.47,5.5-3.14,12.78-4.85,13.49-5.72,6.71-8.56,7.46-9.58,11.79-13.93,1.49-1.45,3.58-3.63,4.77-6.1,1.19-2.32,1.64-5.08,2.98-7.98.3-.73,5.22-7.11,6.27-8.42,1.53-1.98,3.05-3.3,4-3.3.6,0,.97.52.97,1.73,0,4.24-1.99,6.82-8.55,15.07-.87,1.09-1.04,1.8-1.04,2.49,0,.44.07.88.07,1.4,0,.61-.1,1.34-.52,2.35-1.19,2.76-3.08,2.92-5.82,5.52-5.22,4.93-7.76,8.56-11.34,13.79-3.43,4.93-12.38,12.34-15.37,14.37-1.27.86-1.67.97-2.15.97-.14,0-.3,0-.48,0-.63,0-1.64.11-4.08,1.07-1.04.44-3.28,1.31-12.38,4.21-.82.26-1.49.35-2.05.35h0ZM373.1,233.24c-.3,0-1.19.87-.6,2.32.45,1.16,1.34,1.74,2.09,1.45-.15-.43-.6-3.77-1.49-3.77ZM395.63,192.44c.72,0,1.8-.13,3.43-.41,10.15-1.74,14.47-4.64,18.05-9,4.33-5.37,4.03-5.08,4.77-5.95,6.15-7.56,6.88-8.9,7.46-10.45.75-1.89,1.04-4.21,3.73-3.77,1.32.15,1.67-.43,1.67-1.41,0-1.1-.45-2.7-.45-4.27,0-.97.17-1.92.72-2.75,5.09-7.7,7.18-11.97,7.18-13.97,0-1.01-.53-1.44-1.48-1.44-.68,0-8.04,1.21-9.72,2.35-2.09,1.31-3.79,7.18-5.37,9-3.88,4.45-4.29,8.13-9.25,8.13-1.94,0-2.09,1.89-9.1,12.34-1.79,2.76-.15,8.71-2.09,10.88-1.68,1.89-3.73,1.74-4.92,2.18-1.34.58-5.97,5.08-5.97,7.69,0,.53.22.85,1.35.85h0ZM404.51,180.57c0-.77-.64-1.38-1.42-1.38s-1.42.62-1.42,1.38.64,1.38,1.42,1.38,1.42-.62,1.42-1.38ZM406.41,231.04c.92,0,1.72-1.17,3.57-2.78,3.55-3.1,8.63-4.92,6.2-4.88-1.67.03-4.69,1.34-7.52,2.94-.89.49-3.32,2.84-3.32,4.03,0,.42.3.69,1.07.69h0ZM413.68,147.47c.01-.05.02-.1.02-.16,0-.55-.67-1.16-1.21-1.3-.09-.02-.19-.02-.28-.02-.79,0-1.52.52-1.66,1.04,0,.58.6,1.16,1.49,1.31.1.02.2.03.3.03.67,0,1.34-.39,1.34-.9ZM415.02,143.99c6.86-7.69,4.03-4.5,8.21-7.98.24-.23.43-.65.43-1.07,0-.63-.43-1.25-1.77-1.25-4.18,0-5.07,5.51-8.65,10.01-.18.2-.26.39-.26.54,0,.28.27.45.65.45.42,0,.96-.21,1.4-.69Z"/>
      <path class="cls-2" d="M465.6,241.66c-3.13.29-7.16-1.45-8.5-3.77-1.23-2.09-2.1-4.04-2.1-5.99,0-.9.19-1.8.61-2.72,0-1.33-1.13-4.02-1.13-6.51,0-.77.11-1.51.39-2.2,2.54-6.24,7.46-6.97,9.7-12.19.45-1.31,2.39-6.1,2.98-7.55.45-1.31,1.64-2.18,2.69-3.34,1.34-1.45,2.24-3.05,3.13-4.79,1.49-2.61,3.73-4.5,5.37-6.97.75-1.31,1.94-2.76,2.39-4.35.45-1.45.15-2.9.6-4.5.89-2.61.6-5.22,2.54-7.4,1.19-1.6,1.64-1.16,1.49-3.05,0-1.02-.11-1.85-.11-2.68s.11-1.67.56-2.68c1.04-2.32,6.86-7.26,7.01-9.72.03-.19.04-.43.04-.69,0-1.11-.22-2.69-.34-3.51,0-1.16-.15-1.6-1.04-2.32-1.19-.58-5.4,4.21-8.95,4.21-1.95,0-2.69-1.74-4.03-2.32-.53-.17-.86-.25-1.04-.25-.12,0-.17.03-.17.1,0,.39,1.87,1.81,1.21,2.62-4.03,5.37-7.91,13.93-12.53,16.83-2.39,1.6-4.03,4.79-4.92,7.55-.89,3.48-2.39,4.93-4.77,7.55-1.79,2.18-2.69,5.52-3.58,8.13-.45,1.31-2.98,3.05-5.22,5.22-3.73,3.63-3.28,2.9-5.22,6.24-.69,1.22-1.29,1.68-1.82,1.68-1.42,0-2.35-3.34-3.11-4.29-1.64-2.18,5.67-10.45,10.29-14.08,6.12-4.79,13.88-29.03,18.65-30.04,1.56-.33,1.98-.71,1.98-1.28,0-.64-.53-1.52-.53-2.8,0-.62.12-1.33.49-2.16.45-1.02,2.54-4.35,2.24-5.22-.15-.87-3.13-2.03-3.88-2.61-2.09-1.89-2.83-4.35-2.83-6.97-.13-1.02-.47-2.26-.47-3.33,0-1.55,1.52-3.39,2.56-4.79.75-1.02,2.69-2.47,3.28-3.63.11-.25.15-.51.15-.76,0-.6-.21-1.23-.21-1.94,0-3.33,3.96-4.84,5.88-7.02,1.28-1.66,3.25-3.06,5.63-3.06,2.86,0,4.78,1.47,9.29,1.17,1.35-.09,1.87,1.23,1.87,2.92,0,2.04-.76,4.62-1.72,5.93-4.92,6.68-5.89,10.43-7.01,14.08-.45,1.45-3.88,7.26-3.13,8.71.3.73,2.39.58,3.13.87.82.36,1.19.65,2.05.65s2.2-.29,4.96-1.09c2.22-.64,4.33.14,7.31-1.45,2.15-1.16,4.44-1.67,6.56-1.67,4.35,0,7.95,2.17,7.95,5.41,0,1.31-.59,2.8-1.97,4.39-1.79,2.03-4.62,2.32-4.33,4.06.37,2.26,1.21,3.67,1.21,5.19,0,.92-.31,1.88-1.21,3.08-2.24,3.05-7.16,8.27-10.89,11.46-2.69,2.32-2.83,6.39-4.48,9.58-1.49,2.9-2.09,5.66-3.28,8.71-1.19,2.76-1.94,5.08-5.97,7.4-5.22,3.05-2.83,8.13-5.82,11.32-1.04,1.16-4.18,7.84-4.33,9.29-.45,1.89-1.04,3.19-1.79,4.79-1.19,2.47-2.69,4.79-2.09,7.26-.5,1.06-1.56,3.61-1.56,5.38,0,1.06.38,1.83,1.49,1.83.35,0,.77-.08,1.27-.24,5.82-.58,5.67-3.19,8.06-5.22,3.28-2.76,10.44-4.35,10.59-7.98,2.98-2.76-.3-6.82,7.46-10.59.36-.17.48-.36.48-.56,0-.47-.68-1.02-.68-1.7,0-.48.35-1.03,1.54-1.66,4.18-2.18,7.76-9.72,9.55-11.03,2.83-2.03,5.97-5.22,8.21-8.71,1.49-1.74,2.54-8.42,6.12-9,.32-.05.65-.07.96-.07,1.57,0,2.92.6,2.92,1.81,0,2.03-2.98,4.06-3.58,5.81-.89,2.61.45,2.18-1.94,4.5-1.19,1.02-2.24,2.18-3.13,3.63-2.24,3.48-12.53,13.35-13.28,18.14-.45,2.9-3.73,6.82-2.54,5.08l-3.88,4.06c-1.04.87-2.39,1.89-3.58,2.76-1.49.73-.15,1.45-1.34,2.03-1.04.73-1.79,2.18-2.83,3.05-1.34,1.6-5.97,2.32-7.16,4.06-2.24,2.9-4.77,4.79-7.76,5.52-1.07.23-2.01.28-2.9.28-.6,0-1.18-.02-1.77-.02-.74,0-1.5.03-2.35.18h0ZM459.12,217.53c-.78.62-1.58,1.18-2.32,3.52-.44,1.4-.61,2.45-.61,3.25,0,1.11.33,1.76.76,2.26.64.74.62-6.3,2.17-9.04ZM464.26,122.8c-.55-.38-.97-1.4-.97-2.28,0-.8.35-1.49,1.27-1.49,1.64,0,2.63-1.53,3.58-.87.47.33.69.82.69,1.4,0,.72-.34,1.56-.99,2.37-.67.84-1.56,1.23-2.37,1.23-.45,0-.87-.12-1.21-.36ZM474.1,139.49c1.79-2.32,3.51-4.36,4.03-7.4.3-1.74.75-3.48,1.04-5.22,0-.73.9-1.31-.15-1.74-.1-.05-.2-.07-.3-.07-.53,0-1.12.55-1.49.79-2.83,1.74-6.12,4.06-6.27,7.84,0,1.31.9,1.45,1.19,2.61.21.59.26,1.03.26,1.39,0,.23-.02.43-.02.61,0,.55.14,1,1.25,1.77.15-.29.3-.44.45-.58ZM479.77,112.49c1.04-.87,1.55-2.1,1.04-2.47-.2-.14-.45-.22-.73-.22-.58,0-1.3.31-1.95.94-.9.87-1.55,2.1-1.04,2.47.19.13.41.2.67.2.57,0,1.29-.33,2.01-.93ZM502.3,160.53c1.34-1.9,2.25-2.9,2.25-3.86,0-.44-.19-.86-.61-1.36-.43-.26-.78-.43-1.03-.43s-.4.18-.4.63c0,.32.08.78.24,1.4-2.39,4.35-6.42,6.68-4.77,7.98,1.49,0,2.83-2.9,4.33-4.35ZM510.13,143.48c0-3.78-4.93-3.5-4.25-2.83,1.19,1.16,2.83,4.93,2.09,6.39-.78,1.26,2.16-.88,2.16-3.55ZM509.76,159.37c0-.87.9-1.02,1.64-1.6.1-.1.22-.14.34-.14.59,0,1.3,1.02,1.3,1.74,0,.29-.3.58-.3,1.02,0,.73-.9,1.02-1.34.58-.75-.73-1.64-.73-1.64-1.6Z"/>
      <path class="cls-2" d="M468.34,303.78c-.8,0-1.7-.82-2.73-2.96-1.1-2.3-.76-4.49-.75-6.97.01-3.2-3.59-9.58-3.52-12.66.2-9.55,8.7-14.3,12.2-22.65,1.46-3.49,2.42-8.04,4.6-11.15,1.21-1.71,2.55-2.46,3.37-4.45,1.03-2.53,1.78-4.48,3.28-7.04,1.29-2.2,1.25-4.43,2.59-6.47,1.27-1.93,3.21-3.95,4.66-5.89,3.17-4.24,6.33-9.14,9.87-13.17.94-1.07,1.8-2.02,2.59-2.87-2.08.48-4.1,1.07-5.94,1.78-.75.29-1.36.41-1.84.41-.99,0-1.44-.54-1.44-1.32,0-2.1,3.22-5.96,7.92-6.04,3.03-.05,5.75-1.14,7.87-2.15,2.59-3.43,4.56-7.64,8.33-18.3,1.7-4.8,3.6-9.38,5.09-14.2,1.59-5.13,5.51-7.15,8.14-11.57,2.39-4.01,3.87-7.3,4.79-11.04,1.07-4.35,2.11-7.99,4.54-11.97,2.13-3.49,5.06-5.83,6.42-9.71,1.3-3.72-1.19-6.76-.14-12.53,1.41-7.79,8.96-21.22,20.37-21.22,12.82,0,5.41,7.81,7.01,10.32.79,1.23,2.92,4.46,2.37,5.66-.34.75-.87.88-1.42.88-.65,0-1.32-.18-1.76.22-1.85,1.67-2.66,4.14-5.13,5.56-2.22,1.27-2.91,2.53-4.78,4.17-3.62,3.17-5.37,4.74-8.94,8.48-2.75,2.88-3.58,6.91-5.73,10.2-1.17,1.8-3.02,3.57-3.02,5.65,0,1.4,1.24,3.29,1.42,4.59.14,1.04.22,2.01.22,2.97,0,2.07-.39,4.05-1.46,6.35-2.29,4.9-4.73,6.7-8.44,10.3-2.76,2.67-4.56,7.13-6.76,10.45-4.82,7.25-8.23,16.19-13.52,23.16-.43.57-.93,1.09-1.43,1.61,1.22-.39,2.15-1.29,3.22-1.66,3.04-1.06,6.13-1.81,9.13-2.43,3.2-.67,4.44-3.08,7.18-4.36,2.98-1.39,5.68-2.92,8.89-3.9,3.67-1.11,8.11-4.56,11.77-5.25,1.28-.24,3.48.19,3.06-1.19-.09-.29-.16-.64-.16-1.01,0-.55.15-1.14.59-1.65.6-.69,1.32-.98,2.11-.98,1.29,0,2.76.78,4.11,1.88.75.61,1.32,1.61,1.91,2.2.69.7,1.06,1.65,1.06,2.65,0,1.13-.47,2.31-1.48,3.25-1.99,1.85-6.28,3.05-9.31,3.93-3.88,1.13-8.67,3.53-11.15,6.07l-.36.37c1.03.05,2.43.82,3,.09,1.14-1.45,2.37-1.95,3.34-1.95s1.73.55,1.73,1.15c0,.64-.81,1.33-2.95,1.47-3.66.23-12.52,6.95-13.24,4.49-.02-.08-.03-.15-.03-.22,0-1.14,2.48-2,2.42-3.14,0-.11-.06-.33-.05-.47-2.45.54-3.58,2.16-7.59,1.77-3.39-.33-6.49,2.57-9.87,3.44-1.09.28-5.1.49-10.02,1.07.08,1.75.68,3.76.77,5.38.03.54.09,1.08.14,1.63.42,4.42,1.07,8.8,1.8,13.27,1.38,8.42,3.13,16.03,3.13,24.68,0,1.79-.1,2.82-.1,3.54,0,1.12.24,1.48,1.49,2.76,1.65,1.69,2.66,1.05,2.63,3.73-.03,2.99-2.8,8.72-4.39,11.16-2.33,3.57-6.82,5.19-9.67,8.65-2.87,3.49-7.03,6.31-9.27,10.03-1.46,2.42-1.01,5.37-2.4,7.83-1.13,2.01-2.95,4.49-4.68,6.09-1.61,1.49-2.99,1.8-4.43,1.8-.99,0-2-.14-3.14-.14-.66,0-1.36.05-2.12.2-.97.19-3.74,1.06-6.01,1.06-2.03,0-3.65-.69-3.23-3.19.4-2.33,6.55-5.73,8.67-6.89,4.26-2.33,7.65-3.78,10.77-7.84,2.64-3.44,5.06-6.78,7.99-9.93,2.8-3.01,4.45-6.25,4.45-10.51,0-2.63-.45-4.35-.45-6.13,0-1.43.29-2.91,1.32-4.95.99-1.93,2.09-4.36,3.9-5.64.41-.29.74-.38,1.03-.38.43,0,.74.2,1.02.2.29,0,.54-.24.84-1.23.51-1.7-.61-3.86-.88-5.54-.4-2.47-.22-4.55-.64-7.06-.68-4.18-1.94-7.89-2.95-11.99-.4-1.64-.31-3.54-.32-5.44,0-1.97-.09-3.94-.81-5.58-3.94,2.65-7.06,8.98-9.03,13.24-2.77,5.98-6.51,11.19-10.47,16.31-2.76,3.57-5.49,9.5-5.49,13.47s1.64,8.4,1.64,12.54c0,1.01-.1,2.01-.34,2.99-1.19,4.86-7.9,7.77-9.49,12.48-1.36,4.02-2.65,8.22-4.07,12.22-.82,2.32-1.92,5.12-3.39,5.12h0ZM465.35,283.59c.98.17-.6-1.8-.6-4.01,0-.45.07-.92.23-1.37,3.48-9.55,3.66-7.72,4.53-9.19.4-.68-.2-1.35-.8-.48-3.14,4.52-5.81,4.35-5.81,9.41s1.31,5.46,2.45,5.65h0ZM519.92,266.63c.27,0,1.33-1.5,1.91-2.24.84-1.06.78-1.58,1.23-3.09.04-.14.06-.27.06-.4,0-1.3-1.92-2.23-2.69-3.33-.5-.72-1.24-.31-.99.43.61,1.79,1.84.77,2.51,1.55.26.31.37.57.37.83,0,.68-.74,1.36-1.33,2.8-.33.8-.37.94-.37.99,0,.07.1-.08-.48,1.41-.19.5-.28.79-.28.94,0,.07.02.11.06.11h0ZM533.5,205.59c0-.72.7-1.3,1.56-1.3s1.56.58,1.56,1.3-.7,1.3-1.56,1.3-1.56-.58-1.56-1.3ZM546.18,153.33c.36-.7.49-1.47.49-2.29,0-2.1.53-5.06-.99-6.61-1.11-1.13-.45.19-.45,2.79,0,1.62-.26,3.74-1.38,6.08-2.9,6.08-5.37,8.74-4.04,7.68,1.33-1.06,5.1-5.14,6.37-7.65ZM558.82,185.41c.33-1.25,6.28-1.39,6.28-3.03,0-.36-.28-.79-.97-1.31-1.69-1.3-2.27-1.32-1.84-.25.72,1.76-1.73,3.04-4.76,3.22-.83,0-1.13.21-1.13.49,0,.73,2.15,1.88,2.41.88h0ZM566.41,110.32c-2.23.87,2.63.31,4.18-1.26,1.56-1.59,2.32-3.9,2.89-4.3.26-.18.5-.25.72-.25.65,0,1.13.58,1.38.4,1.03-.72-1.46-4.88-2.38-4.24-.92.65-1.22,1.59-2.62,3.88-1.43,2.33-2.07,4.95-4.17,5.77h0Z"/>
      <path class="cls-2" d="M565.6,243.46c-1.68,0-2.49-.86-4.06-.93-6.12-.29-8.65-1.45-11.64-3.48-3.14-2.14-4.11-4.95-4.11-7.96,0-2.05.46-4.19.98-6.27,1.79-7.06.52-10.84,3.13-17.27,3.73-9.18.86-7.02,5.52-10.59.5-.38.76-.87.76-1.51s-.25-1.41-.76-2.41c-1.19-2.03,2.46-4.55,4.03-6.68,1.33-1.79,1.66-2.82,1.66-3.67s-.34-1.55-.34-2.68c0-1.66-1.59-5.82,2.55-10.94,3.5-4.33,8.79-5.08,11.19-8.1,17.65-22.26,15.44-29.6,24.05-29.79,4.21-.09,2.56,2.99,3.47,2.99,2.15,0,3.45-3.1,5.01-3.1,2.61,0,4.75.84,6.71,1.27,1,.22,1.93.27,2.76.27.95,0,1.78-.07,2.48-.07,1.72,0,2.69.44,2.69,3.48,0,6.04,5.69,1.21,5.69,9.96,0,6.68-4.38,9.48-5.42,11.22-2.69,4.21-7.46,10.45-8.8,12.34-3.73,5.51-.45,9.58-4.18,13.06-2.39,2.18-3.13.15-10.15,4.21-1.49.87-3.26.72-6.41,3.92-4.55,4.61-8.36,5.22-13.43,6.53-2.54.37-5.72-.59-8.59-.59-1.69,0-3.27.33-4.54,1.46-1.64,1.89-2.69,5.22-3.58,7.69-1.94,5.52-2.19,8.09-2.69,9.14-1.03,2.18-1.38,3.89-1.38,5.37,0,3.04,1.48,5.05,1.48,7.95,0,1.03-.19,2.18-.7,3.52-.58,1.54,3.39,2.68,8.19,2.68,3.71,0,7.92-.68,10.91-2.39.95-.52,3.31-4.39,6.95-6.47,5.5-3.14,12.78-4.85,13.49-5.72,6.71-8.56,7.46-9.58,11.79-13.93,1.49-1.45,3.58-3.63,4.77-6.1,1.19-2.32,1.64-5.08,2.98-7.98.3-.73,5.22-7.11,6.27-8.42,1.53-1.98,3.05-3.3,4-3.3.6,0,.97.52.97,1.73,0,4.24-1.99,6.82-8.55,15.07-.87,1.09-1.04,1.8-1.04,2.49,0,.44.07.88.07,1.4,0,.61-.1,1.34-.52,2.35-1.19,2.76-3.08,2.92-5.82,5.52-5.22,4.93-7.76,8.56-11.34,13.79-3.43,4.93-12.38,12.34-15.37,14.37-1.27.86-1.67.97-2.15.97-.14,0-.3,0-.48,0-.63,0-1.64.11-4.08,1.07-1.04.44-3.28,1.31-12.38,4.21-.82.26-1.49.35-2.05.35h0ZM549.75,233.24c-.3,0-1.19.87-.6,2.32.45,1.16,1.34,1.74,2.09,1.45-.15-.43-.6-3.77-1.49-3.77ZM572.28,192.44c.72,0,1.8-.13,3.43-.41,10.15-1.74,14.47-4.64,18.05-9,4.33-5.37,4.03-5.08,4.77-5.95,6.15-7.56,6.88-8.9,7.46-10.45.75-1.89,1.04-4.21,3.73-3.77,1.32.15,1.67-.43,1.67-1.41,0-1.1-.45-2.7-.45-4.27,0-.97.17-1.92.72-2.75,5.09-7.7,7.18-11.97,7.18-13.97,0-1.01-.53-1.44-1.48-1.44-.68,0-8.04,1.21-9.72,2.35-2.09,1.31-3.79,7.18-5.37,9-3.88,4.45-4.29,8.13-9.25,8.13-1.94,0-2.09,1.89-9.1,12.34-1.79,2.76-.15,8.71-2.09,10.88-1.68,1.89-3.73,1.74-4.92,2.18-1.34.58-5.97,5.08-5.97,7.69,0,.53.22.85,1.35.85h0ZM581.16,180.57c0-.77-.64-1.38-1.42-1.38s-1.42.62-1.42,1.38.64,1.38,1.42,1.38,1.42-.62,1.42-1.38ZM583.06,231.04c.92,0,1.72-1.17,3.57-2.78,3.55-3.1,8.63-4.92,6.2-4.88-1.67.03-4.69,1.34-7.52,2.94-.89.49-3.32,2.84-3.32,4.03,0,.42.3.69,1.07.69h0ZM590.33,147.47c.01-.05.02-.1.02-.16,0-.55-.67-1.16-1.21-1.3-.09-.02-.19-.02-.28-.02-.79,0-1.52.52-1.66,1.04,0,.58.6,1.16,1.49,1.31.1.02.2.03.3.03.67,0,1.34-.39,1.34-.9ZM591.67,143.99c6.86-7.69,4.03-4.5,8.21-7.98.24-.23.43-.65.43-1.07,0-.63-.43-1.25-1.77-1.25-4.18,0-5.07,5.51-8.65,10.01-.18.2-.26.39-.26.54,0,.28.27.45.65.45.42,0,.96-.21,1.4-.69Z"/>
      <path class="cls-2" d="M615.91,240.99c0-1.02,1.19-1.16,1.94-1.89.13-.13.28-.18.44-.18.74,0,1.65,1.23,1.65,2.07,0,.44-.45.73-.45,1.16,0,.05.01.1.01.15,0,.77-1.09,1.13-1.65.58-.9-.87-1.94-.87-1.94-1.89ZM638.82,242.62c-.69,0-1.39-.09-2.17-.33-1.79-.43-4.48-2.76-5.97-3.77-1.19-.73-2.09-2.18-2.98-3.19-1.04-1.16-3.28-2.47-4.03-3.77-.6-1.31,2.47-7.17,2.17-8.62-.05-.29-.07-.6-.07-.91,0-.76.12-1.55.12-2.28,0-.58-.08-1.13-.34-1.6-.75-1.31-1.64-2.03-1.79-3.77,0-1.45.3-3.19.45-4.64.21-1.54.42-3.15.42-4.75,0-1.85-.28-3.69-1.16-5.41-1.01-2.16-1.88-3.72-1.88-5.62,0-.91.2-1.91.69-3.09,1.34-3.19,4.33-6.24,5.52-9.58,2.54-6.68,4.18-6.97,4.92-8.27.9-1.31,1.04-3.05,1.49-4.5,1.49-3.48.75-6.39,2.54-9.43,1.25-2.09,3.53-2.82,5.08-2.82.1,0,.2,0,.29,0,1.05-1.51,2.47-3.03,5.37-4.44,3.13-1.45,2.83-5.08,5.22-7.55,2.39-2.61,5.37-4.06,8.35-5.8,2.69-1.6,7.91-3.92,10.29-5.66,1.04-.87,2.69-1.6,8.5-1.74,2.09,0,5.37,1.02,6.27,2.61.95,1.53,2.56,3.39,2.56,5.25,0,1.57-1.89,3.66-.77,4.48,1.73,1.35,2.41,3.14,2.41,5.08,0,1.4-.35,2.89-.92,4.35-.45,1.45-3.88,3.19-4.62,4.5-.81,1.26-2.27,2.51-2.27,4.14,0,1.53,1.47,4.1.78,5.44-.75,1.6-2.24,2.76-3.88,3.48-.42.15-1.02.22-1.71.22-2.76,0-7.06-1.09-8.13-2.83-.38-.61-.55-1.2-.55-1.76,0-1.85,1.78-3.37,3.38-4.04,1.64-.58,2.83-1.45,4.18-2.47,1.04-.58,2.69-1.45,3.28-2.32.75-1.16.75-2.61,1.49-3.92,1.23-1.8,1.96-3.44,1.96-5.72,0-1.37-2.89-1.21-3.75-3.57-.09-.23-.13-.44-.13-.64,0-1.04,1.04-1.82,1.04-2.95,0-.78-.54-2.78-1.5-3.09-.2-.07-.39-.1-.57-.1-1.32,0-2.22,1.68-3.01,2.57-1.79,2.32-4.18,3.05-6.71,4.35-3.28,1.74-5.37,4.5-7.46,7.4-1.94,2.61-7.73,4.73-9.25,7.69l-2.24,4.35c-.87,1.69-2.24,3.48-2.69,5.22-.3,1.6-.15,2.61-1.04,4.06-.75,1.31-3.13,8.42-4.03,9.72-2.09,3.05-1.64.29-2.83,3.77-1.04,3.34-.75,6.39-2.98,9.43-.9,1.16-1.79,2.47-2.09,4.06-.07.44-.09.86-.09,1.28s.02.84.02,1.26c0,.83-.08,1.67-.52,2.54-.55.88-.74,1.7-.74,2.52,0,1.49.6,2.99.6,4.9,0,2.08-.48,3.77-.16,5.79.31,1.4.12,2.73.12,4.13,0,2.84,1.65,7.79,5.4,9.07,1.19.43,2.39.6,3.58.6,2.39,0,4.77-.64,7.16-1.03,7.31-1.16,11.19-7.4,15.96-12.19,2.83-2.76,5.82-5.52,8.65-8.27,2.98-2.76,6.56-5.37,8.8-8.71,1.94-3.05,3.43-6.53,5.37-9.72.6-.87,1.04-1.74,1.64-2.61,3.78-6.39,6.27-8.57,7.63-8.57.87,0,1.28.89,1.28,2.14,0,1.82-.88,4.41-2.5,6.14,0,.15-4.92,7.98-5.07,8.13-2.09,3.19-3.28,7.11-5.67,10.16-2.09,2.76-4.92,5.95-7.91,7.84-3.28,2.18-5.37,4.93-7.61,7.98-1.79,2.47-4.03,4.21-6.27,6.39-2.54,2.32-5.52,4.21-8.95,5.52-2.98,1.16-9.63,6.16-12.76,7.03-1.16.26-2.17.47-3.2.47h0ZM646.32,237.68c2.42-1.28-3.6.75-6.08-.16-2.48-.91-7.66-.86-6.45.16,1.21,1.02,3.01,2.62,6.38,2.24,3.37-.37,4.1-1.49,6.15-2.24ZM639.64,166.8c0-.7-.48-1.41-1.42-1.48-.96-.08-1.76.92-1.76,1.77,0,.61.41,1.13,1.46,1.13.06,0,.11,0,.16,0,1.05,0,1.56-.71,1.56-1.43ZM672.32,165.57c0-.66-.18-1.27-.53-1.27-.96-.08-1.76.92-1.76,1.77,0,.61.41,1.13,1.46,1.13.57,0,.82-.85.82-1.63ZM674.77,136.15c1.74-1.03,2.47-2.06,2.47-2.75,0-.52-.41-.85-1.11-.85-2.9,0-4.86,2.41-4.86,3.73,0,.51.29.86.92.86.57,0,1.41-.28,2.58-.99ZM684.2,160.81c0-1.06.99-2.31,2.23-2.31s1.86.93,1.86,1.87-.66,1.91-2.03,1.91c-1.48,0-2.06-.66-2.06-1.47Z"/>
      <path class="cls-2" d="M699.33,246.69c-1.75,0-3.52-.59-5.31-2.28-3.59-3.39-8.89-2.71-8.89-7.72,0-2.07.91-5.12,3.22-9.84.9-1.89,3.13-12.48,3.58-14.51.16-.52.2-.97.2-1.38s-.04-.78-.04-1.14c0-.63.11-1.24.73-1.97,1.19-1.45,4.6-1.7,4.92-5.08,1.68-17.53,15.52-26.89,18.05-36.02,2.19-7.88,6.71-11.14,5.82-12.74-1.28-2.32-1.78-3.84-1.78-4.9,0-2.38,2.51-2.4,4.17-3.81.4-.35.85-.81,1.34-1.38-2.15.33-4.31.85-6.3,1.82-1.72.83-9.61-1.25-9.61-3.65,0-.52.37-1.05,1.25-1.58,2.9-1.71-.89-5.67,4.57-5.67,1.01,0,2.34.14,4.08.45,2.45.44,4.64.62,6.66.62s3.72-.16,5.43-.43c3.1-4.63,6.08-9.21,7.34-10.06,2.69-1.45,2.83-2.47,4.18-4.5,1.49-2.47,5.37-12.34,5.82-15.09.6-3.92,4.03-8.56,5.97-12.19,2.49-6.13,7.43-8.16,11.99-8.16s9.03,2.18,9.79,4.25c.09.25.12.48.12.7,0,1.28-1.29,2.06-1.32,3.8-.02,1.27.42,2.15.42,3.08,0,.79-.31,1.61-1.47,2.72-2.78,2.68-6.68,9.26-9.7,11.9-2.21,1.93-6.19,6.69-6.71,7.84-1.17,2.58-5.07,3.34-5.97,5.51-.62,1.09-3.48,4.64-6.81,8.77.3.96.6,2.08,1.47,2.08.62,0,1.52-.56,2.91-2.14,2.69-3.05,6.71-.58,15.67-4.06.89-.32,1.74-.51,2.47-.51,1.17,0,1.99.49,1.99,1.68,0,1.05-.63,2.64-2.22,4.92-2.41,3.46-6.58,5.7-9.68,5.7-.92,0-1.75-.2-2.41-.63-.8-.52-1.65-.73-2.5-.73-3.91,0-8.15,4.39-10.63,3.64-1.82-.55-2.95-1.19-3.51-1.85-3.27,4.21-5.85,7.81-5.85,8.82,0,2.07-2.47,2.12-3.28,4.5l-.15.44c-.61,1.79-2.69,2.48-2.69,3.77,0,3.05-1.64,6.53-3.28,10.45-2.39,5.22-6.42.29-6.42,4.06s7.31-3.63,7.91-.14c.75,3.63-7.31,2.9-10.29,6.68-5.22,6.68-7.61,15.67-7.59,20.18,0,.71.09,1.39.27,2.02.4,1.35.82,3.42.82,5.73,0,2.9-.67,6.17-2.91,8.84-6.71,7.84-4.62,15.18-10.14,18.37-2.08,1.2,2.03,2.69,6.49,2.69,2.57,0,5.25-.49,6.94-1.82,3.43-2.9,8.06-3.63,15.22-8.85,1.49-1.02,8.94-12.36,11.49-14.95,1.04-1.06,0-1.78.45-4.5.17-1.03,1.51-1.53,2.54-1.89,3.73-1.31,3.13-6.97,5.52-9.72.75-.87,1.79-1.31,2.39-2.61.9-1.6,1.94-3.63,4.33-4.79,3.28-1.16,4.77-3.77,7.01-6.53.75-1.16,1.19-1.45,1.19-2.03,1.12-1.6,2.26-2.24,3.21-2.24,1.43,0,2.47,1.45,2.47,3.29,0,1.51-.69,3.28-2.4,4.76-1.19,1.31-5.67,5.95-6.41,7.26-.9,1.16-1.79,2.61-2.69,4.06-.75,1.02-.69-.96-1.94.29-4.34,4.34-7.91,17.08-10.89,18.87-5.97,3.58-8.35,11.61-12.53,14.08-4.92,2.9-8.21,8.42-20.44,13.21-2.5.96-5.06,2.28-7.67,2.28h0ZM701.32,219.62c2.64-2.77,5.67-8.47,5.67-11.69,0-.79-.18-1.43-.6-1.84-.37-.37-.83-.53-1.26-.53-.68,0-1.27.42-1.27,1.11,0,.34.14.74.48,1.18.47.61.69,1.4.69,2.28,0,2.7-2.12,6.23-5.48,8-.77.4-1.11,1.08-1.11,1.65s.32,1.01.9,1.01c.49,0,1.16-.32,1.97-1.17ZM719.79,138.47c1.36-1.32-1.65-2.87-3.85-2.87-.94,0-1.73.28-1.97.98-.17.5-.32.79-.32.97,0,.29.38.3,1.66.48,1.42.29,2.08,1.26,2.96,1.26.42,0,.89-.22,1.51-.82ZM743.81,105.96c-1.02,0-2.9-1.53-2.79-2.46.15-1,1.2-1.58,2.19-1.58s1.99.62,1.84,2.01c0,.44-.6.73-.6,1.16,0,.04,0,.08,0,.12,0,.53-.26.74-.64.74h0ZM758.8,94.64c2.73-2.12,6.61-5.33,7.82-5.18,2.14.88,3.15.45,3.24-.21.07-.59-.61-1.36-1.9-1.52-1.19-.14-2.91.24-5.03,1.77-1.33.82-3.64,1.28-4.55,3.62-.79,1.37-.27,2.17.42,1.52h0ZM766.25,122.82c0-.64.71-2.38,1.58-2.38.31,0,.64.22.96.78.75,1.31,3.13.29,1.04,1.6-.9.56-1.7.78-2.3.78-.8,0-1.28-.36-1.28-.78Z"/>
      <path class="cls-2" d="M802.66,151.12v-10.76h11.06v10.76h-11.06ZM802.66,151.12v-10.76h11.06v10.76h-11.06ZM802.66,151.12v-10.76h11.06v10.76h-11.06ZM802.66,151.12v-10.76h11.06v10.76h-11.06ZM802.66,158.8v-10.76h11.06v10.76h-11.06ZM802.66,158.8v-10.76h11.06v10.76h-11.06ZM802.66,158.8v-10.76h11.06v10.76h-11.06ZM802.66,158.8v-10.76h11.06v10.76h-11.06ZM802.66,166.49v-10.76h11.06v10.76h-11.06ZM802.66,166.49v-10.76h11.06v10.76h-11.06ZM802.66,166.49v-10.76h11.06v10.76h-11.06ZM802.66,166.49v-10.76h11.06v10.76h-11.06ZM802.66,174.17v-10.76h11.06v10.76h-11.06ZM802.66,174.17v-10.76h11.06v10.76h-11.06ZM802.66,174.17v-10.76h11.06v10.76h-11.06ZM802.66,174.17v-10.76h11.06v10.76h-11.06ZM802.66,181.86v-10.76h11.06v10.76h-11.06ZM802.66,181.86v-10.76h11.06v10.76h-11.06ZM802.66,181.86v-10.76h11.06v10.76h-11.06ZM802.66,181.86v-10.76h11.06v10.76h-11.06ZM802.66,189.54v-10.76h11.06v10.76h-11.06ZM802.66,189.54v-10.76h11.06v10.76h-11.06ZM802.66,189.54v-10.76h11.06v10.76h-11.06ZM802.66,189.54v-10.76h11.06v10.76h-11.06ZM802.66,197.22v-10.76h11.06v10.76h-11.06ZM802.66,197.22v-10.76h11.06v10.76h-11.06ZM802.66,197.22v-10.76h11.06v10.76h-11.06ZM802.66,197.22v-10.76h11.06v10.76h-11.06ZM802.66,204.91v-10.76h11.06v10.76h-11.06ZM802.66,204.91v-10.76h11.06v10.76h-11.06ZM802.66,204.91v-10.76h11.06v10.76h-11.06ZM802.66,204.91v-10.76h11.06v10.76h-11.06ZM802.66,212.59v-10.76h11.06v10.76h-11.06ZM802.66,212.59v-10.76h11.06v10.76h-11.06ZM802.66,212.59v-10.76h11.06v10.76h-11.06ZM802.66,212.59v-10.76h11.06v10.76h-11.06ZM802.66,220.27v-10.76h11.06v10.76h-11.06ZM802.66,220.27v-10.76h11.06v10.76h-11.06ZM802.66,220.27v-10.76h11.06v10.76h-11.06ZM802.66,220.27v-10.76h11.06v10.76h-11.06ZM802.66,227.96v-10.76h11.06v10.76h-11.06ZM802.66,227.96v-10.76h11.06v10.76h-11.06ZM802.66,227.96v-10.76h11.06v10.76h-11.06ZM802.66,227.96v-10.76h11.06v10.76h-11.06ZM810.56,151.12v-10.76h11.06v10.76h-11.06ZM810.56,151.12v-10.76h11.06v10.76h-11.06ZM810.56,151.12v-10.76h11.06v10.76h-11.06ZM810.56,151.12v-10.76h11.06v10.76h-11.06ZM810.56,189.54v-10.76h11.06v10.76h-11.06ZM810.56,189.54v-10.76h11.06v10.76h-11.06ZM810.56,189.54v-10.76h11.06v10.76h-11.06ZM810.56,189.54v-10.76h11.06v10.76h-11.06ZM810.56,227.96v-10.76h11.06v10.76h-11.06ZM810.56,227.96v-10.76h11.06v10.76h-11.06ZM810.56,227.96v-10.76h11.06v10.76h-11.06ZM810.56,227.96v-10.76h11.06v10.76h-11.06ZM818.46,151.12v-10.76h11.06v10.76h-11.06ZM818.46,151.12v-10.76h11.06v10.76h-11.06ZM818.46,151.12v-10.76h11.06v10.76h-11.06ZM818.46,151.12v-10.76h11.06v10.76h-11.06ZM818.46,189.54v-10.76h11.06v10.76h-11.06ZM818.46,189.54v-10.76h11.06v10.76h-11.06ZM818.46,189.54v-10.76h11.06v10.76h-11.06ZM818.46,189.54v-10.76h11.06v10.76h-11.06ZM818.46,227.96v-10.76h11.06v10.76h-11.06ZM818.46,227.96v-10.76h11.06v10.76h-11.06ZM818.46,227.96v-10.76h11.06v10.76h-11.06ZM818.46,227.96v-10.76h11.06v10.76h-11.06ZM826.36,151.12v-10.76h11.06v10.76h-11.06ZM826.36,151.12v-10.76h11.06v10.76h-11.06ZM826.36,151.12v-10.76h11.06v10.76h-11.06ZM826.36,151.12v-10.76h11.06v10.76h-11.06ZM826.36,189.54v-10.76h11.06v10.76h-11.06ZM826.36,189.54v-10.76h11.06v10.76h-11.06ZM826.36,189.54v-10.76h11.06v10.76h-11.06ZM826.36,189.54v-10.76h11.06v10.76h-11.06ZM826.36,227.96v-10.76h11.06v10.76h-11.06ZM826.36,227.96v-10.76h11.06v10.76h-11.06ZM826.36,227.96v-10.76h11.06v10.76h-11.06ZM826.36,227.96v-10.76h11.06v10.76h-11.06ZM834.26,158.8v-10.76h11.06v10.76h-11.06ZM834.26,158.8v-10.76h11.06v10.76h-11.06ZM834.26,158.8v-10.76h11.06v10.76h-11.06ZM834.26,158.8v-10.76h11.06v10.76h-11.06ZM834.26,166.49v-10.76h11.06v10.76h-11.06ZM834.26,166.49v-10.76h11.06v10.76h-11.06ZM834.26,166.49v-10.76h11.06v10.76h-11.06ZM834.26,166.49v-10.76h11.06v10.76h-11.06ZM834.26,174.17v-10.76h11.06v10.76h-11.06ZM834.26,174.17v-10.76h11.06v10.76h-11.06ZM834.26,174.17v-10.76h11.06v10.76h-11.06ZM834.26,174.17v-10.76h11.06v10.76h-11.06ZM834.26,181.86v-10.76h11.06v10.76h-11.06ZM834.26,181.86v-10.76h11.06v10.76h-11.06ZM834.26,181.86v-10.76h11.06v10.76h-11.06ZM834.26,181.86v-10.76h11.06v10.76h-11.06ZM834.26,197.22v-10.76h11.06v10.76h-11.06ZM834.26,197.22v-10.76h11.06v10.76h-11.06ZM834.26,197.22v-10.76h11.06v10.76h-11.06ZM834.26,197.22v-10.76h11.06v10.76h-11.06ZM834.26,204.91v-10.76h11.06v10.76h-11.06ZM834.26,204.91v-10.76h11.06v10.76h-11.06ZM834.26,204.91v-10.76h11.06v10.76h-11.06ZM834.26,204.91v-10.76h11.06v10.76h-11.06ZM834.26,212.59v-10.76h11.06v10.76h-11.06ZM834.26,212.59v-10.76h11.06v10.76h-11.06ZM834.26,212.59v-10.76h11.06v10.76h-11.06ZM834.26,212.59v-10.76h11.06v10.76h-11.06ZM834.26,220.27v-10.76h11.06v10.76h-11.06ZM834.26,220.27v-10.76h11.06v10.76h-11.06ZM834.26,220.27v-10.76h11.06v10.76h-11.06ZM834.26,220.27v-10.76h11.06v10.76h-11.06Z"/>
      <path class="cls-2" d="M857.96,181.86v-10.76h11.06v10.76h-11.06ZM857.96,181.86v-10.76h11.06v10.76h-11.06ZM857.96,181.86v-10.76h11.06v10.76h-11.06ZM857.96,181.86v-10.76h11.06v10.76h-11.06ZM857.96,189.54v-10.76h11.06v10.76h-11.06ZM857.96,189.54v-10.76h11.06v10.76h-11.06ZM857.96,189.54v-10.76h11.06v10.76h-11.06ZM857.96,189.54v-10.76h11.06v10.76h-11.06ZM857.96,197.22v-10.76h11.06v10.76h-11.06ZM857.96,197.22v-10.76h11.06v10.76h-11.06ZM857.96,197.22v-10.76h11.06v10.76h-11.06ZM857.96,197.22v-10.76h11.06v10.76h-11.06ZM857.96,204.91v-10.76h11.06v10.76h-11.06ZM857.96,204.91v-10.76h11.06v10.76h-11.06ZM857.96,204.91v-10.76h11.06v10.76h-11.06ZM857.96,204.91v-10.76h11.06v10.76h-11.06ZM857.96,212.59v-10.76h11.06v10.76h-11.06ZM857.96,212.59v-10.76h11.06v10.76h-11.06ZM857.96,212.59v-10.76h11.06v10.76h-11.06ZM857.96,212.59v-10.76h11.06v10.76h-11.06ZM857.96,220.27v-10.76h11.06v10.76h-11.06ZM857.96,220.27v-10.76h11.06v10.76h-11.06ZM857.96,220.27v-10.76h11.06v10.76h-11.06ZM857.96,220.27v-10.76h11.06v10.76h-11.06ZM865.86,174.17v-10.76h11.06v10.76h-11.06ZM865.86,174.17v-10.76h11.06v10.76h-11.06ZM865.86,174.17v-10.76h11.06v10.76h-11.06ZM865.86,174.17v-10.76h11.06v10.76h-11.06ZM865.86,197.22v-10.76h11.06v10.76h-11.06ZM865.86,197.22v-10.76h11.06v10.76h-11.06ZM865.86,197.22v-10.76h11.06v10.76h-11.06ZM865.86,197.22v-10.76h11.06v10.76h-11.06ZM865.86,227.96v-10.76h11.06v10.76h-11.06ZM865.86,227.96v-10.76h11.06v10.76h-11.06ZM865.86,227.96v-10.76h11.06v10.76h-11.06ZM865.86,227.96v-10.76h11.06v10.76h-11.06ZM873.75,174.17v-10.76h11.06v10.76h-11.06ZM873.75,174.17v-10.76h11.06v10.76h-11.06ZM873.75,174.17v-10.76h11.06v10.76h-11.06ZM873.75,174.17v-10.76h11.06v10.76h-11.06ZM873.75,197.22v-10.76h11.06v10.76h-11.06ZM873.75,197.22v-10.76h11.06v10.76h-11.06ZM873.75,197.22v-10.76h11.06v10.76h-11.06ZM873.75,197.22v-10.76h11.06v10.76h-11.06ZM873.75,227.96v-10.76h11.06v10.76h-11.06ZM873.75,227.96v-10.76h11.06v10.76h-11.06ZM873.75,227.96v-10.76h11.06v10.76h-11.06ZM873.75,227.96v-10.76h11.06v10.76h-11.06ZM881.65,174.17v-10.76h11.06v10.76h-11.06ZM881.65,174.17v-10.76h11.06v10.76h-11.06ZM881.65,174.17v-10.76h11.06v10.76h-11.06ZM881.65,174.17v-10.76h11.06v10.76h-11.06ZM881.65,197.22v-10.76h11.06v10.76h-11.06ZM881.65,197.22v-10.76h11.06v10.76h-11.06ZM881.65,197.22v-10.76h11.06v10.76h-11.06ZM881.65,197.22v-10.76h11.06v10.76h-11.06ZM881.65,227.96v-10.76h11.06v10.76h-11.06ZM881.65,227.96v-10.76h11.06v10.76h-11.06ZM881.65,227.96v-10.76h11.06v10.76h-11.06ZM881.65,227.96v-10.76h11.06v10.76h-11.06ZM889.55,181.86v-10.76h11.06v10.76h-11.06ZM889.55,181.86v-10.76h11.06v10.76h-11.06ZM889.55,181.86v-10.76h11.06v10.76h-11.06ZM889.55,181.86v-10.76h11.06v10.76h-11.06ZM889.55,189.54v-10.76h11.06v10.76h-11.06ZM889.55,189.54v-10.76h11.06v10.76h-11.06ZM889.55,189.54v-10.76h11.06v10.76h-11.06ZM889.55,189.54v-10.76h11.06v10.76h-11.06ZM889.55,197.22v-10.76h11.06v10.76h-11.06ZM889.55,197.22v-10.76h11.06v10.76h-11.06ZM889.55,197.22v-10.76h11.06v10.76h-11.06ZM889.55,197.22v-10.76h11.06v10.76h-11.06ZM889.55,220.27v-10.76h11.06v10.76h-11.06ZM889.55,220.27v-10.76h11.06v10.76h-11.06ZM889.55,220.27v-10.76h11.06v10.76h-11.06ZM889.55,220.27v-10.76h11.06v10.76h-11.06Z"/>
      <path class="cls-2" d="M909.3,151.12v-10.76h11.06v10.76h-11.06ZM909.3,151.12v-10.76h11.06v10.76h-11.06ZM909.3,151.12v-10.76h11.06v10.76h-11.06ZM909.3,151.12v-10.76h11.06v10.76h-11.06ZM909.3,158.8v-10.76h11.06v10.76h-11.06ZM909.3,158.8v-10.76h11.06v10.76h-11.06ZM909.3,158.8v-10.76h11.06v10.76h-11.06ZM909.3,158.8v-10.76h11.06v10.76h-11.06ZM909.3,174.17v-10.76h11.06v10.76h-11.06ZM909.3,174.17v-10.76h11.06v10.76h-11.06ZM909.3,174.17v-10.76h11.06v10.76h-11.06ZM909.3,174.17v-10.76h11.06v10.76h-11.06ZM909.3,181.86v-10.76h11.06v10.76h-11.06ZM909.3,181.86v-10.76h11.06v10.76h-11.06ZM909.3,181.86v-10.76h11.06v10.76h-11.06ZM909.3,181.86v-10.76h11.06v10.76h-11.06ZM909.3,189.54v-10.76h11.06v10.76h-11.06ZM909.3,189.54v-10.76h11.06v10.76h-11.06ZM909.3,189.54v-10.76h11.06v10.76h-11.06ZM909.3,189.54v-10.76h11.06v10.76h-11.06ZM909.3,197.22v-10.76h11.06v10.76h-11.06ZM909.3,197.22v-10.76h11.06v10.76h-11.06ZM909.3,197.22v-10.76h11.06v10.76h-11.06ZM909.3,197.22v-10.76h11.06v10.76h-11.06ZM909.3,204.91v-10.76h11.06v10.76h-11.06ZM909.3,204.91v-10.76h11.06v10.76h-11.06ZM909.3,204.91v-10.76h11.06v10.76h-11.06ZM909.3,204.91v-10.76h11.06v10.76h-11.06ZM909.3,212.59v-10.76h11.06v10.76h-11.06ZM909.3,212.59v-10.76h11.06v10.76h-11.06ZM909.3,212.59v-10.76h11.06v10.76h-11.06ZM909.3,212.59v-10.76h11.06v10.76h-11.06ZM909.3,220.27v-10.76h11.06v10.76h-11.06ZM909.3,220.27v-10.76h11.06v10.76h-11.06ZM909.3,220.27v-10.76h11.06v10.76h-11.06ZM909.3,220.27v-10.76h11.06v10.76h-11.06ZM909.3,227.96v-10.76h11.06v10.76h-11.06ZM909.3,227.96v-10.76h11.06v10.76h-11.06ZM909.3,227.96v-10.76h11.06v10.76h-11.06ZM909.3,227.96v-10.76h11.06v10.76h-11.06Z"/>
      <path class="cls-2" d="M932.99,174.17v-10.76h11.06v10.76h-11.06ZM932.99,174.17v-10.76h11.06v10.76h-11.06ZM932.99,174.17v-10.76h11.06v10.76h-11.06ZM932.99,174.17v-10.76h11.06v10.76h-11.06ZM932.99,181.86v-10.76h11.06v10.76h-11.06ZM932.99,181.86v-10.76h11.06v10.76h-11.06ZM932.99,181.86v-10.76h11.06v10.76h-11.06ZM932.99,181.86v-10.76h11.06v10.76h-11.06ZM932.99,189.54v-10.76h11.06v10.76h-11.06ZM932.99,189.54v-10.76h11.06v10.76h-11.06ZM932.99,189.54v-10.76h11.06v10.76h-11.06ZM932.99,189.54v-10.76h11.06v10.76h-11.06ZM932.99,197.22v-10.76h11.06v10.76h-11.06ZM932.99,197.22v-10.76h11.06v10.76h-11.06ZM932.99,197.22v-10.76h11.06v10.76h-11.06ZM932.99,197.22v-10.76h11.06v10.76h-11.06ZM932.99,204.91v-10.76h11.06v10.76h-11.06ZM932.99,204.91v-10.76h11.06v10.76h-11.06ZM932.99,204.91v-10.76h11.06v10.76h-11.06ZM932.99,204.91v-10.76h11.06v10.76h-11.06ZM932.99,212.59v-10.76h11.06v10.76h-11.06ZM932.99,212.59v-10.76h11.06v10.76h-11.06ZM932.99,212.59v-10.76h11.06v10.76h-11.06ZM932.99,212.59v-10.76h11.06v10.76h-11.06ZM932.99,220.27v-10.76h11.06v10.76h-11.06ZM932.99,220.27v-10.76h11.06v10.76h-11.06ZM932.99,220.27v-10.76h11.06v10.76h-11.06ZM932.99,220.27v-10.76h11.06v10.76h-11.06ZM932.99,227.96v-10.76h11.06v10.76h-11.06ZM932.99,227.96v-10.76h11.06v10.76h-11.06ZM932.99,227.96v-10.76h11.06v10.76h-11.06ZM932.99,227.96v-10.76h11.06v10.76h-11.06ZM940.89,181.86v-10.76h11.06v10.76h-11.06ZM940.89,181.86v-10.76h11.06v10.76h-11.06ZM940.89,181.86v-10.76h11.06v10.76h-11.06ZM940.89,181.86v-10.76h11.06v10.76h-11.06ZM948.79,174.17v-10.76h11.06v10.76h-11.06ZM948.79,174.17v-10.76h11.06v10.76h-11.06ZM948.79,174.17v-10.76h11.06v10.76h-11.06ZM948.79,174.17v-10.76h11.06v10.76h-11.06ZM956.69,174.17v-10.76h11.06v10.76h-11.06ZM956.69,174.17v-10.76h11.06v10.76h-11.06ZM956.69,174.17v-10.76h11.06v10.76h-11.06ZM956.69,174.17v-10.76h11.06v10.76h-11.06ZM964.59,181.86v-10.76h11.06v10.76h-11.06ZM964.59,181.86v-10.76h11.06v10.76h-11.06ZM964.59,181.86v-10.76h11.06v10.76h-11.06ZM964.59,181.86v-10.76h11.06v10.76h-11.06ZM964.59,189.54v-10.76h11.06v10.76h-11.06ZM964.59,189.54v-10.76h11.06v10.76h-11.06ZM964.59,189.54v-10.76h11.06v10.76h-11.06ZM964.59,189.54v-10.76h11.06v10.76h-11.06ZM964.59,197.22v-10.76h11.06v10.76h-11.06ZM964.59,197.22v-10.76h11.06v10.76h-11.06ZM964.59,197.22v-10.76h11.06v10.76h-11.06ZM964.59,197.22v-10.76h11.06v10.76h-11.06ZM964.59,204.91v-10.76h11.06v10.76h-11.06ZM964.59,204.91v-10.76h11.06v10.76h-11.06ZM964.59,204.91v-10.76h11.06v10.76h-11.06ZM964.59,204.91v-10.76h11.06v10.76h-11.06ZM964.59,212.59v-10.76h11.06v10.76h-11.06ZM964.59,212.59v-10.76h11.06v10.76h-11.06ZM964.59,212.59v-10.76h11.06v10.76h-11.06ZM964.59,212.59v-10.76h11.06v10.76h-11.06ZM964.59,220.27v-10.76h11.06v10.76h-11.06ZM964.59,220.27v-10.76h11.06v10.76h-11.06ZM964.59,220.27v-10.76h11.06v10.76h-11.06ZM964.59,220.27v-10.76h11.06v10.76h-11.06ZM964.59,227.96v-10.76h11.06v10.76h-11.06ZM964.59,227.96v-10.76h11.06v10.76h-11.06ZM964.59,227.96v-10.76h11.06v10.76h-11.06ZM964.59,227.96v-10.76h11.06v10.76h-11.06Z"/>
      <path class="cls-2" d="M988.29,181.86v-10.76h11.06v10.76h-11.06ZM988.29,181.86v-10.76h11.06v10.76h-11.06ZM988.29,181.86v-10.76h11.06v10.76h-11.06ZM988.29,181.86v-10.76h11.06v10.76h-11.06ZM988.29,189.54v-10.76h11.06v10.76h-11.06ZM988.29,189.54v-10.76h11.06v10.76h-11.06ZM988.29,189.54v-10.76h11.06v10.76h-11.06ZM988.29,189.54v-10.76h11.06v10.76h-11.06ZM988.29,197.22v-10.76h11.06v10.76h-11.06ZM988.29,197.22v-10.76h11.06v10.76h-11.06ZM988.29,197.22v-10.76h11.06v10.76h-11.06ZM988.29,197.22v-10.76h11.06v10.76h-11.06ZM988.29,204.91v-10.76h11.06v10.76h-11.06ZM988.29,204.91v-10.76h11.06v10.76h-11.06ZM988.29,204.91v-10.76h11.06v10.76h-11.06ZM988.29,204.91v-10.76h11.06v10.76h-11.06ZM988.29,251.01v-10.76h11.06v10.76h-11.06ZM988.29,251.01v-10.76h11.06v10.76h-11.06ZM988.29,251.01v-10.76h11.06v10.76h-11.06ZM988.29,251.01v-10.76h11.06v10.76h-11.06ZM996.19,174.17v-10.76h11.06v10.76h-11.06ZM996.19,174.17v-10.76h11.06v10.76h-11.06ZM996.19,174.17v-10.76h11.06v10.76h-11.06ZM996.19,174.17v-10.76h11.06v10.76h-11.06ZM996.19,212.59v-10.76h11.06v10.76h-11.06ZM996.19,212.59v-10.76h11.06v10.76h-11.06ZM996.19,212.59v-10.76h11.06v10.76h-11.06ZM996.19,212.59v-10.76h11.06v10.76h-11.06ZM996.19,220.27v-10.76h11.06v10.76h-11.06ZM996.19,220.27v-10.76h11.06v10.76h-11.06ZM996.19,220.27v-10.76h11.06v10.76h-11.06ZM996.19,220.27v-10.76h11.06v10.76h-11.06ZM996.19,227.96v-10.76h11.06v10.76h-11.06ZM996.19,227.96v-10.76h11.06v10.76h-11.06ZM996.19,227.96v-10.76h11.06v10.76h-11.06ZM996.19,227.96v-10.76h11.06v10.76h-11.06ZM996.19,251.01v-10.76h11.06v10.76h-11.06ZM996.19,251.01v-10.76h11.06v10.76h-11.06ZM996.19,251.01v-10.76h11.06v10.76h-11.06ZM996.19,251.01v-10.76h11.06v10.76h-11.06ZM1004.08,174.17v-10.76h11.06v10.76h-11.06ZM1004.08,174.17v-10.76h11.06v10.76h-11.06ZM1004.08,174.17v-10.76h11.06v10.76h-11.06ZM1004.08,174.17v-10.76h11.06v10.76h-11.06ZM1004.08,212.59v-10.76h11.06v10.76h-11.06ZM1004.08,212.59v-10.76h11.06v10.76h-11.06ZM1004.08,212.59v-10.76h11.06v10.76h-11.06ZM1004.08,212.59v-10.76h11.06v10.76h-11.06ZM1004.08,227.96v-10.76h11.06v10.76h-11.06ZM1004.08,227.96v-10.76h11.06v10.76h-11.06ZM1004.08,227.96v-10.76h11.06v10.76h-11.06ZM1004.08,227.96v-10.76h11.06v10.76h-11.06ZM1004.08,251.01v-10.76h11.06v10.76h-11.06ZM1004.08,251.01v-10.76h11.06v10.76h-11.06ZM1004.08,251.01v-10.76h11.06v10.76h-11.06ZM1004.08,251.01v-10.76h11.06v10.76h-11.06ZM1011.98,174.17v-10.76h11.06v10.76h-11.06ZM1011.98,174.17v-10.76h11.06v10.76h-11.06ZM1011.98,174.17v-10.76h11.06v10.76h-11.06ZM1011.98,174.17v-10.76h11.06v10.76h-11.06ZM1011.98,212.59v-10.76h11.06v10.76h-11.06ZM1011.98,212.59v-10.76h11.06v10.76h-11.06ZM1011.98,212.59v-10.76h11.06v10.76h-11.06ZM1011.98,212.59v-10.76h11.06v10.76h-11.06ZM1011.98,227.96v-10.76h11.06v10.76h-11.06ZM1011.98,227.96v-10.76h11.06v10.76h-11.06ZM1011.98,227.96v-10.76h11.06v10.76h-11.06ZM1011.98,227.96v-10.76h11.06v10.76h-11.06ZM1011.98,251.01v-10.76h11.06v10.76h-11.06ZM1011.98,251.01v-10.76h11.06v10.76h-11.06ZM1011.98,251.01v-10.76h11.06v10.76h-11.06ZM1011.98,251.01v-10.76h11.06v10.76h-11.06ZM1019.88,166.49v-10.76h11.06v10.76h-11.06ZM1019.88,166.49v-10.76h11.06v10.76h-11.06ZM1019.88,166.49v-10.76h11.06v10.76h-11.06ZM1019.88,166.49v-10.76h11.06v10.76h-11.06ZM1019.88,181.86v-10.76h11.06v10.76h-11.06ZM1019.88,181.86v-10.76h11.06v10.76h-11.06ZM1019.88,181.86v-10.76h11.06v10.76h-11.06ZM1019.88,181.86v-10.76h11.06v10.76h-11.06ZM1019.88,189.54v-10.76h11.06v10.76h-11.06ZM1019.88,189.54v-10.76h11.06v10.76h-11.06ZM1019.88,189.54v-10.76h11.06v10.76h-11.06ZM1019.88,189.54v-10.76h11.06v10.76h-11.06ZM1019.88,197.22v-10.76h11.06v10.76h-11.06ZM1019.88,197.22v-10.76h11.06v10.76h-11.06ZM1019.88,197.22v-10.76h11.06v10.76h-11.06ZM1019.88,197.22v-10.76h11.06v10.76h-11.06ZM1019.88,204.91v-10.76h11.06v10.76h-11.06ZM1019.88,204.91v-10.76h11.06v10.76h-11.06ZM1019.88,204.91v-10.76h11.06v10.76h-11.06ZM1019.88,204.91v-10.76h11.06v10.76h-11.06ZM1019.88,235.64v-10.76h11.06v10.76h-11.06ZM1019.88,235.64v-10.76h11.06v10.76h-11.06ZM1019.88,235.64v-10.76h11.06v10.76h-11.06ZM1019.88,235.64v-10.76h11.06v10.76h-11.06ZM1019.88,243.32v-10.76h11.06v10.76h-11.06ZM1019.88,243.32v-10.76h11.06v10.76h-11.06ZM1019.88,243.32v-10.76h11.06v10.76h-11.06ZM1019.88,243.32v-10.76h11.06v10.76h-11.06Z"/>
    </g>
  </g>
</svg>